<?xml version="1.0" encoding="UTF-8" standalone="no"?>
<!-- Created with Inkscape (http://www.inkscape.org/) -->

<svg
   xmlns:dc="http://purl.org/dc/elements/1.1/"
   xmlns:cc="http://creativecommons.org/ns#"
   xmlns:rdf="http://www.w3.org/1999/02/22-rdf-syntax-ns#"
   xmlns:svg="http://www.w3.org/2000/svg"
   xmlns="http://www.w3.org/2000/svg"
   xmlns:sodipodi="http://sodipodi.sourceforge.net/DTD/sodipodi-0.dtd"
   xmlns:inkscape="http://www.inkscape.org/namespaces/inkscape"
   width="64"
   height="64"
   viewBox="0 0 63.999999 63.999999"
   id="svg2"
   version="1.1"
   inkscape:version="0.91 r13725"
   sodipodi:docname="lock_brick.svg"
   inkscape:export-filename="C:\projects\math\resources\buttons\add_brick.png"
   inkscape:export-xdpi="169"
   inkscape:export-ydpi="169">
  <defs
     id="defs4" />
  <sodipodi:namedview
     id="base"
     pagecolor="#ffffff"
     bordercolor="#666666"
     borderopacity="1.0"
     inkscape:pageopacity="0.0"
     inkscape:pageshadow="2"
     inkscape:zoom="5.6"
     inkscape:cx="21.204144"
     inkscape:cy="38.398759"
     inkscape:document-units="px"
     inkscape:current-layer="layer1"
     showgrid="false"
     units="px"
     inkscape:window-width="1280"
     inkscape:window-height="667"
     inkscape:window-x="-8"
     inkscape:window-y="-8"
     inkscape:window-maximized="1" />
  <metadata
     id="metadata7">
    <rdf:RDF>
      <cc:Work
         rdf:about="">
        <dc:format>image/svg+xml</dc:format>
        <dc:action_type
           rdf:resource="http://purl.org/dc/dcmitype/StillImage" />
        <dc:title></dc:title>
      </cc:Work>
    </rdf:RDF>
  </metadata>
  <g
     inkscape:label="Layer 1"
     inkscape:groupmode="layer"
     id="layer1"
     transform="translate(0,-988.3622)">
    <circle
       style="opacity:1;fill:#000080;fill-opacity:1;stroke:#0000ff;stroke-width:4;stroke-linecap:round;stroke-linejoin:round;stroke-miterlimit:4;stroke-dasharray:none;stroke-dashoffset:0;stroke-opacity:1"
       id="path4136"
       cx="26"
       cy="1026.3622"
       r="16" />
    <path
       style="opacity:1;fill:#8b6666;fill-opacity:1;stroke:none;stroke-width:8;stroke-linecap:round;stroke-linejoin:round;stroke-miterlimit:4;stroke-dasharray:none;stroke-dashoffset:0;stroke-opacity:1"
       d="m 39.964844,996.62392 c -6.928286,0 -12.499953,5.87688 -12.5,12.97068 l 0,2.7676 -0.464844,0 c -1.108,0 -2,0.892 -2,2 l 0,16 c 0,1.108 0.892,2 2,2 l 26,0 c 1.108,0 2,-0.892 2,-2 l 0,-16 c 0,-1.108 -0.892,-2 -2,-2 l -0.535156,0 0,-2.7676 c -4.7e-5,-7.0938 -5.571714,-12.97068 -12.5,-12.97068 z m 0,3.99998 c 4.669416,0 8.499966,3.9457 8.5,8.9707 l 0,2.7676 -17,0 0,-2.7676 c 3.3e-5,-5.025 3.830584,-8.9707 8.5,-8.9707 z"
       id="rect4135"
       inkscape:connector-curvature="0" />
  </g>
</svg>
